<svg width="25" height="24" viewBox="0 0 25 24" fill="none" xmlns="http://www.w3.org/2000/svg">
<g clip-path="url(#clip0_1296_2487)">
<path d="M17.726 5.66521C17.9417 5.66537 18.1554 5.63057 18.3548 5.5628C18.5542 5.49503 18.7353 5.39563 18.8879 5.27029C19.0404 5.14494 19.1613 4.99611 19.2438 4.83233C19.3262 4.66854 19.3684 4.49301 19.3682 4.31578C19.3682 3.72201 18.6453 2.84032 18.1529 2.31882C18.102 2.26431 18.0364 2.22015 17.9614 2.18975C17.8864 2.15936 17.8038 2.14355 17.7202 2.14355C17.6365 2.14355 17.554 2.15936 17.4789 2.18975C17.4039 2.22015 17.3384 2.26431 17.2874 2.31882C16.8053 2.84032 16.0831 3.72201 16.0831 4.31578C16.0828 4.49306 16.1251 4.66864 16.2075 4.83247C16.29 4.99629 16.411 5.14514 16.5636 5.2705C16.7162 5.39585 16.8975 5.49524 17.0969 5.56297C17.2964 5.6307 17.5101 5.66544 17.726 5.66521ZM12.2503 5.66521C12.4662 5.66544 12.6799 5.6307 12.8794 5.56297C13.0789 5.49524 13.2601 5.39585 13.4127 5.2705C13.5653 5.14514 13.6863 4.99629 13.7688 4.83247C13.8512 4.66864 13.8935 4.49306 13.8933 4.31578C13.8933 3.72201 13.1703 2.84032 12.678 2.31882C12.627 2.26431 12.5615 2.22015 12.4865 2.18975C12.4115 2.15936 12.3289 2.14355 12.2453 2.14355C12.1616 2.14355 12.079 2.15936 12.004 2.18975C11.929 2.22015 11.8635 2.26431 11.8125 2.31882C11.3303 2.84032 10.6082 3.72201 10.6082 4.31578C10.6079 4.49301 10.6501 4.66854 10.7326 4.83233C10.815 4.99611 10.9359 5.14494 11.0885 5.27029C11.241 5.39563 11.4221 5.49503 11.6215 5.5628C11.8209 5.63057 12.0346 5.66537 12.2503 5.66521ZM6.77471 5.66521C6.99054 5.66544 7.2043 5.6307 7.40376 5.56297C7.60322 5.49524 7.78444 5.39585 7.93706 5.2705C8.08968 5.14514 8.21068 4.99629 8.29314 4.83247C8.3756 4.66864 8.4179 4.49306 8.41762 4.31578C8.41762 3.72201 7.69471 2.84032 7.20234 2.31882C7.15141 2.26431 7.08589 2.22015 7.01086 2.18975C6.93582 2.15936 6.85328 2.14355 6.76962 2.14355C6.68595 2.14355 6.60341 2.15936 6.52838 2.18975C6.45334 2.22015 6.38782 2.26431 6.33689 2.31882C5.85471 2.84032 5.13252 3.72201 5.13252 4.31578C5.13224 4.49296 5.17449 4.66844 5.25686 4.83219C5.33923 4.99594 5.46011 5.14474 5.61257 5.27007C5.76503 5.39541 5.94608 5.49483 6.14537 5.56263C6.34466 5.63043 6.55827 5.66529 6.77398 5.66521H6.77471ZM19.8293 8.37302C19.7183 8.10702 19.5087 7.87629 19.2297 7.7133C18.9508 7.55031 18.6167 7.46327 18.2743 7.46444H6.22634C5.88439 7.46452 5.55094 7.55204 5.2723 7.71486C4.99367 7.87767 4.78366 8.10771 4.67143 8.37302L2.51434 13.4732C2.43528 13.6645 2.39451 13.865 2.39362 14.067V20.5071C2.39362 20.865 2.56671 21.2082 2.87481 21.4613C3.18292 21.7144 3.6008 21.8565 4.03652 21.8565C4.47225 21.8565 4.89013 21.7144 5.19824 21.4613C5.50634 21.2082 5.67943 20.865 5.67943 20.5071V20.0573H18.8213V20.5071C18.8213 20.865 18.9943 21.2082 19.3024 21.4613C19.6106 21.7144 20.0284 21.8565 20.4642 21.8565C20.8999 21.8565 21.3178 21.7144 21.6259 21.4613C21.934 21.2082 22.1071 20.865 22.1071 20.5071V14.0664C22.1053 13.8645 22.0645 13.6641 21.9863 13.4726L19.8285 8.37242L19.8293 8.37302ZM6.22634 17.3596C5.90141 17.3596 5.58377 17.2805 5.31359 17.1322C5.04342 16.9839 4.83284 16.7732 4.70849 16.5266C4.58415 16.28 4.55161 16.0087 4.615 15.7469C4.67839 15.4852 4.83487 15.2447 5.06463 15.056C5.2944 14.8673 5.58713 14.7388 5.90583 14.6867C6.22452 14.6346 6.55485 14.6614 6.85506 14.7635C7.15526 14.8656 7.41185 15.0386 7.59237 15.2605C7.7729 15.4824 7.86925 15.7433 7.86925 16.0102C7.86954 16.1875 7.82724 16.3631 7.74478 16.5269C7.66232 16.6907 7.54131 16.8396 7.3887 16.9649C7.23608 17.0903 7.05485 17.1897 6.8554 17.2574C6.65594 17.3251 6.44217 17.3599 6.22634 17.3596ZM18.2729 17.3596C17.948 17.3596 17.6303 17.2805 17.3601 17.1322C17.09 16.9839 16.8794 16.7732 16.755 16.5266C16.6307 16.28 16.5982 16.0087 16.6615 15.7469C16.7249 15.4852 16.8814 15.2447 17.1112 15.056C17.3409 14.8673 17.6337 14.7388 17.9524 14.6867C18.2711 14.6346 18.6014 14.6614 18.9016 14.7635C19.2018 14.8656 19.4584 15.0386 19.6389 15.2605C19.8194 15.4824 19.9158 15.7433 19.9158 16.0102C19.9161 16.1874 19.8738 16.363 19.7914 16.5268C19.709 16.6905 19.588 16.8394 19.4355 16.9647C19.283 17.0901 19.1018 17.1895 18.9024 17.2572C18.7031 17.325 18.4887 17.3598 18.2729 17.3596ZM4.58416 12.8615L5.97471 9.42556C6.05008 9.24783 6.19058 9.09362 6.37692 8.9841C6.56326 8.87458 6.7863 8.81511 7.01543 8.81387H17.4882C17.7173 8.81511 17.9403 8.87458 18.1267 8.9841C18.313 9.09362 18.4535 9.24783 18.5289 9.42556L19.9194 12.8615H4.58416Z" fill="#008080"/>
</g>
<defs>
<clipPath id="clip0_1296_2487">
<rect width="19.7127" height="19.7127" fill="white" transform="translate(2.39362 2.14355)"/>
</clipPath>
</defs>
</svg>
