<svg width="25" height="24" viewBox="0 0 25 24" fill="none" xmlns="http://www.w3.org/2000/svg">
<g clip-path="url(#clip0_1296_2479)">
<mask id="mask0_1296_2479" style="mask-type:luminance" maskUnits="userSpaceOnUse" x="8" y="0" width="14" height="14">
<path d="M21.3734 7.75149L13.9407 0.000976562L8.21872 5.57598L15.6514 13.3265L21.3734 7.75149Z" fill="white"/>
</mask>
<g mask="url(#mask0_1296_2479)">
<path d="M15.936 9.94039C16.15 10.0227 16.3457 10.1466 16.5122 10.3052C16.3607 10.1321 16.2444 9.93066 16.1701 9.71231C16.2518 9.49662 16.3748 9.29924 16.5321 9.13142C16.3604 9.28421 16.1605 9.40144 15.9439 9.47642C15.7299 9.39414 15.5341 9.2702 15.3676 9.11166C15.5192 9.28471 15.6354 9.48615 15.7098 9.7045C15.6281 9.9202 15.505 10.1176 15.3477 10.2854C15.5194 10.1326 15.7193 10.0154 15.936 9.94039Z" fill="#008080" stroke="#008080" stroke-width="0.15"/>
<path d="M18.434 7.86865C18.7798 8.00168 19.0963 8.20198 19.3654 8.45813C19.1206 8.17833 18.9327 7.85272 18.8126 7.49982C18.9446 7.15119 19.1434 6.83214 19.3976 6.56082C19.12 6.80771 18.7969 6.99715 18.4467 7.11835C18.1009 6.98533 17.7844 6.78504 17.5153 6.52887C17.7602 6.80866 17.948 7.13428 18.0682 7.48718C17.9361 7.83581 17.7373 8.15486 17.4831 8.42618C17.7607 8.17929 18.0838 7.98985 18.434 7.86865Z" fill="#008080" stroke="#008080" stroke-width="0.15"/>
<path d="M14.441 5.88734C14.6332 6.30143 14.7427 6.74961 14.7633 7.20634C14.784 6.7496 14.8936 6.3014 15.0859 5.88726C15.4968 5.69341 15.9414 5.58291 16.3946 5.56204C15.9415 5.5413 15.4968 5.43092 15.086 5.23719C14.8938 4.8231 14.7843 4.37493 14.7637 3.91819C14.743 4.37493 14.6334 4.82314 14.4411 5.23728C14.0302 5.43112 13.5855 5.54162 13.1324 5.56249C13.5855 5.58323 14.0302 5.69361 14.441 5.88734Z" fill="#008080" stroke="#008080" stroke-width="0.15"/>
</g>
<mask id="mask1_1296_2479" style="mask-type:luminance" maskUnits="userSpaceOnUse" x="0" y="2" width="25" height="22">
<path d="M24.9773 2.65234H0.977264V23.9992H24.9773V2.65234Z" fill="white"/>
</mask>
<g mask="url(#mask1_1296_2479)">
<path d="M18.9124 3.19141C19.2802 3.19139 19.6332 3.3377 19.8946 3.59855C20.156 3.8594 20.3047 4.2137 20.3083 4.58444C20.3083 4.95762 20.1613 5.31551 19.8995 5.57939C19.6377 5.84326 19.2826 5.99151 18.9124 5.99151C18.5421 5.99151 18.1871 5.84326 17.9253 5.57939C17.6635 5.31551 17.5164 4.95762 17.5164 4.58444C17.5201 4.2137 17.6688 3.8594 17.9302 3.59855C18.1916 3.3377 18.5445 3.19139 18.9124 3.19141Z" fill="#008080" stroke="#F5F5F5" stroke-width="0.75"/>
<path d="M12.2345 7.14661C12.4545 7.14877 12.6689 7.2165 12.8507 7.34126C13.0326 7.46601 13.1738 7.64222 13.2565 7.84769C13.3391 8.05315 13.3597 8.27869 13.3154 8.49589C13.2712 8.71309 13.1642 8.91224 13.0079 9.06827C12.8516 9.22429 12.653 9.3302 12.4371 9.37267C12.2212 9.41513 11.9976 9.39225 11.7946 9.30691C11.5916 9.22156 11.4181 9.07757 11.2961 8.89307C11.1741 8.70856 11.109 8.49179 11.109 8.27006C11.1083 8.12139 11.137 7.97406 11.1934 7.8367C11.2498 7.69934 11.3329 7.57471 11.4377 7.47009C11.5425 7.36548 11.6669 7.28299 11.8038 7.22744C11.9406 7.1719 12.087 7.14441 12.2345 7.14661Z" fill="#008080" stroke="#F5F5F5" stroke-width="0.75"/>
<path d="M8.85745 4.04562V16.6738H7.19101V4.04562C7.19148 3.9329 7.214 3.82138 7.25727 3.71745C7.30054 3.61351 7.36372 3.51919 7.44319 3.43988C7.52265 3.36058 7.61685 3.29784 7.72039 3.25526C7.82394 3.21268 7.93479 3.1911 8.04662 3.19174C8.15814 3.18834 8.26894 3.21089 8.37042 3.25765C8.4719 3.3044 8.56132 3.37409 8.63175 3.46132C8.77792 3.62005 8.85904 3.82905 8.85745 4.04562Z" fill="#008080" stroke="#F5F5F5" stroke-width="0.75"/>
<path d="M9.98293 18.0677V18.9667H6.02014V18.0677C6.02318 17.7088 6.16697 17.3657 6.42012 17.1132C6.67328 16.8608 7.01523 16.7196 7.37133 16.7204H8.58697C8.76859 16.7078 8.95083 16.7335 9.122 16.796C9.29316 16.8585 9.44948 16.9564 9.58092 17.0834C9.71235 17.2104 9.81601 17.3636 9.88524 17.5333C9.95447 17.7031 9.98775 17.8855 9.98293 18.0689" fill="#008080"/>
<path d="M9.98293 18.0677V18.9667H6.02014V18.0677C6.02318 17.7088 6.16697 17.3657 6.42012 17.1132C6.67328 16.8608 7.01523 16.7196 7.37133 16.7204H8.58697C8.76859 16.7078 8.95083 16.7335 9.122 16.796C9.29316 16.8585 9.44948 16.9564 9.58092 17.0834C9.71235 17.2104 9.81601 17.3636 9.88524 17.5333C9.95447 17.7031 9.98775 17.8855 9.98293 18.0689" stroke="#F5F5F5" stroke-width="0.75"/>
<path d="M22.5914 12.5399C22.6968 12.6452 22.7792 12.7716 22.8335 12.9108C22.8878 13.05 22.9127 13.1992 22.9066 13.3486C22.9073 13.4973 22.8785 13.6446 22.8221 13.7819C22.7656 13.9192 22.6826 14.0438 22.5778 14.1484C22.473 14.253 22.3486 14.3355 22.2118 14.3911C22.075 14.4467 21.9286 14.4742 21.7811 14.4721H11.6948C11.3967 14.4639 11.1105 14.3528 10.8839 14.1574C10.7785 14.052 10.6961 13.9257 10.6418 13.7865C10.5875 13.6472 10.5626 13.4981 10.5687 13.3486C10.5679 13.1999 10.5966 13.0525 10.6531 12.9151C10.7096 12.7777 10.7927 12.6531 10.8976 12.5485C11.0024 12.4438 11.1269 12.3613 11.2638 12.3058C11.4007 12.2503 11.5472 12.2229 11.6948 12.2252H21.8259C21.9697 12.2043 22.1165 12.2225 22.251 12.2778C22.3856 12.3331 22.503 12.4236 22.5914 12.5399Z" fill="#008080" stroke="#F5F5F5" stroke-width="0.75"/>
<path d="M14.4861 21.1675H15.0718V18.9206H12.505L11.6942 14.4268H21.8259L20.7906 20.2691L20.1147 23.9999H14.4873L14.4861 21.1675Z" fill="#008080" stroke="#F5F5F5" stroke-width="0.75"/>
<path d="M14.4861 21.1685V24.0003H1.56299V21.1685H14.4861Z" fill="#008080" stroke="#F5F5F5" stroke-width="0.75"/>
<path d="M15.0718 18.9214V21.1683H0.977264V18.9214H15.0718Z" fill="#008080" stroke="#F5F5F5" stroke-width="0.75"/>
<path d="M22.4111 21.6172C21.7979 21.6217 21.2046 21.3978 20.7452 20.9883L20.43 20.673L15.8373 16.5384C15.781 16.4887 15.7352 16.4282 15.7024 16.3604C15.6696 16.2926 15.6506 16.2189 15.6463 16.1437C15.6421 16.0684 15.6528 15.993 15.6778 15.9219C15.7028 15.8508 15.7416 15.7855 15.7919 15.7297C15.894 15.6161 16.0364 15.5478 16.1882 15.5394C16.34 15.5311 16.489 15.5835 16.6027 15.6852L21.5101 20.1339C21.7136 20.3064 21.961 20.4181 22.2242 20.4564C22.4874 20.4947 22.756 20.4579 22.9996 20.3504C23.2432 20.2428 23.4521 20.0688 23.6027 19.8478C23.7533 19.6269 23.8396 19.3678 23.8518 19.1001C23.8496 18.9121 23.8033 18.7274 23.7169 18.5609L22.9968 16.8971C22.9641 16.8298 22.9464 16.7561 22.9449 16.6812C22.9435 16.6064 22.9583 16.532 22.9883 16.4635C23.0183 16.395 23.0629 16.3339 23.1188 16.2846C23.1747 16.2353 23.2407 16.1989 23.312 16.178C23.3792 16.1452 23.4526 16.1274 23.5271 16.1258C23.6017 16.1243 23.6758 16.1389 23.7442 16.1689C23.8126 16.1988 23.8738 16.2433 23.9236 16.2993C23.9734 16.3553 24.0106 16.4215 24.0327 16.4933L24.7528 18.1559C24.8962 18.4655 24.973 18.8023 24.9779 19.144C24.9741 19.7425 24.7589 20.3202 24.3707 20.7732C23.9826 21.2262 23.447 21.525 22.86 21.6159L22.4111 21.6172Z" fill="#008080" stroke="#F5F5F5" stroke-width="0.75"/>
</g>
</g>
<defs>
<clipPath id="clip0_1296_2479">
<rect width="24" height="24" fill="white" transform="translate(0.977264)"/>
</clipPath>
</defs>
</svg>
