<svg width="25" height="24" viewBox="0 0 25 24" fill="none" xmlns="http://www.w3.org/2000/svg">
<g clip-path="url(#clip0_1296_2467)">
<mask id="mask0_1296_2467" style="mask-type:luminance" maskUnits="userSpaceOnUse" x="0" y="0" width="25" height="24">
<path d="M24.4289 0.13916H0.707397V23.8606H24.4289V0.13916Z" fill="white"/>
</mask>
<g mask="url(#mask0_1296_2467)">
<path d="M16.7299 20.1982C17.1066 20.5854 17.4515 21.0017 17.7612 21.4432L18.9895 23.2597C19.0415 23.345 19.113 23.4172 19.1983 23.4704C19.2835 23.5236 19.3802 23.5564 19.4805 23.5661C19.5809 23.5758 19.6821 23.5622 19.7762 23.5263C19.8702 23.4905 19.9545 23.4334 20.0223 23.3596L21.0077 22.3856L22.1641 21.2426L23.1495 20.2686C23.2242 20.2016 23.2819 20.1182 23.3181 20.0252C23.3544 19.9322 23.3681 19.8321 23.3582 19.7329C23.3483 19.6337 23.3151 19.5382 23.2612 19.454C23.2073 19.3698 23.1342 19.2992 23.0477 19.2479L21.2099 18.033C20.7632 17.7269 20.342 17.3861 19.9503 17.0137L16.4717 13.5942L13.2717 16.7571L16.7299 20.1982ZM19.2245 19.4793C19.3589 19.3465 19.5302 19.256 19.7167 19.2194C19.9032 19.1827 20.0965 19.2016 20.2722 19.2735C20.4478 19.3454 20.598 19.4672 20.7036 19.6235C20.8092 19.7798 20.8656 19.9635 20.8656 20.1514C20.8656 20.3394 20.8092 20.5231 20.7036 20.6793C20.598 20.8356 20.4478 20.9574 20.2722 21.0293C20.0965 21.1013 19.9032 21.1201 19.7167 21.0835C19.5302 21.0469 19.3589 20.9564 19.2245 20.8235C19.1351 20.7353 19.0643 20.6305 19.0159 20.5152C18.9676 20.3999 18.9427 20.2763 18.9427 20.1514C18.9427 20.0266 18.9676 19.903 19.0159 19.7877C19.0643 19.6723 19.1351 19.5676 19.2245 19.4793Z" fill="#008080"/>
<path d="M10.7831 8.0049C11.1807 7.05956 11.2792 6.01728 11.0653 5.01554C10.8515 4.01379 10.3354 3.09965 9.58524 2.3937C8.18742 1.01066 5.42596 1.26082 5.42596 1.26082C4.97796 1.30179 4.87178 1.59148 5.1896 1.90777L7.31469 4.00604C7.47923 4.18816 7.59944 4.40507 7.66613 4.64018C7.73281 4.87528 7.7442 5.12235 7.69942 5.36247L7.35033 6.77785C7.27964 7.0085 7.15245 7.21834 6.98004 7.38875C6.80763 7.55916 6.59532 7.68488 6.36197 7.75475L4.92997 8.09978C4.68702 8.14404 4.43705 8.13279 4.19919 8.06688C3.96132 8.00097 3.74186 7.88215 3.5576 7.71952L1.39324 5.58172C1.07542 5.26759 0.780147 5.37182 0.731419 5.81462C0.731419 5.81462 0.44051 8.61087 1.86815 10.0212C2.59461 10.7753 3.53856 11.2898 4.57146 11.4945C5.60436 11.6993 6.67602 11.5844 7.64051 11.1656L10.0165 13.5262L13.1998 10.3799L10.7831 8.0049Z" fill="#008080"/>
<path d="M21.0994 4.821L20.5321 4.26678C20.023 3.76935 19.5314 3.43437 19.4412 3.52207C19.351 3.60977 18.9321 3.33949 18.5103 2.92113C18.0885 2.50277 17.85 2.05278 17.983 1.92051C18.1161 1.78825 17.8107 1.27356 17.3045 0.770382L17.0478 0.514477C16.8026 0.274362 16.4714 0.139648 16.1263 0.139648C15.7812 0.139648 15.45 0.274362 15.2049 0.514477L13.5612 2.13904C13.3183 2.38134 13.182 2.70867 13.182 3.0498C13.182 3.39093 13.3183 3.71825 13.5612 3.96056L13.8187 4.21502C14.3278 4.71821 14.8492 5.01796 14.9823 4.88569C15.1154 4.75343 15.6369 5.05534 16.146 5.55636L16.7518 6.15515C16.9947 6.39746 17.131 6.72478 17.131 7.06591C17.131 7.40704 16.9947 7.73437 16.7518 7.97667L15.7685 8.94997L11.1503 13.5095C10.6412 14.0127 10.1038 14.3002 9.95031 14.1457C9.79686 13.9911 9.25722 14.2801 8.75031 14.7811L7.24559 16.2677L3.22304 20.2514C2.98011 20.4938 2.84381 20.8211 2.84381 21.1622C2.84381 21.5033 2.98011 21.8307 3.22304 22.073L4.65141 23.4848C4.89656 23.7249 5.22773 23.8596 5.57286 23.8596C5.91799 23.8596 6.24916 23.7249 6.49431 23.4848L12.023 18.0166C12.1205 17.9203 12.2092 17.8232 12.2885 17.7291C12.6245 17.3265 12.7896 16.9542 12.666 16.832C12.5132 16.681 12.8027 16.1469 13.3096 15.6459L17.9249 11.0842L18.9089 10.1109C19.1532 9.86709 19.4844 9.72751 19.8315 9.722C20.1787 9.71649 20.5142 9.8455 20.7663 10.0814C22.6478 11.941 22.0892 13.3241 22.3241 14.2636C22.3845 14.5051 22.7423 14.8135 22.9176 14.9867C23.4725 15.5352 23.7067 15.436 24.0361 14.4073C24.0361 14.4073 25.9998 9.67096 21.0965 4.82172" fill="#008080"/>
</g>
</g>
<defs>
<clipPath id="clip0_1296_2467">
<rect width="23.7215" height="23.7215" fill="white" transform="translate(0.707397 0.13916)"/>
</clipPath>
</defs>
</svg>
