<svg width="25" height="24" viewBox="0 0 25 24" fill="none" xmlns="http://www.w3.org/2000/svg">
<g clip-path="url(#clip0_1296_2483)">
<path d="M7.75351 0.242546L2.36268 6.96437C2.25371 7.10039 2.18192 7.26933 2.15602 7.45068C2.13013 7.63204 2.15124 7.81802 2.21679 7.98605C2.28234 8.15407 2.38952 8.29692 2.52531 8.39725C2.6611 8.49759 2.81968 8.55109 2.98178 8.55127H3.8867L1.22404 11.569C1.1096 11.6991 1.03174 11.8648 1.00027 12.045C0.968804 12.2253 0.985142 12.4121 1.04723 12.5818C1.10931 12.7516 1.21436 12.8967 1.34912 12.9988C1.48388 13.101 1.64232 13.1556 1.80445 13.1559H3.01583L0.309838 16.8354C0.206676 16.9767 0.141095 17.1483 0.120752 17.3302C0.100409 17.5121 0.126143 17.6968 0.194949 17.8628C0.263755 18.0287 0.372795 18.1691 0.509339 18.2674C0.645882 18.3658 0.804296 18.4181 0.966085 18.4183H7.07868V19.7338C7.07868 20.0828 7.20098 20.4174 7.41868 20.6641C7.63637 20.9108 7.93163 21.0494 8.2395 21.0494C8.54737 21.0494 8.84263 20.9108 9.06032 20.6641C9.27802 20.4174 9.40032 20.0828 9.40032 19.7338V18.4183H15.5129C15.6747 18.4182 15.8332 18.366 15.9699 18.2677C16.1065 18.1694 16.2156 18.029 16.2845 17.863C16.3533 17.6971 16.3791 17.5123 16.3588 17.3303C16.3385 17.1484 16.2729 16.9767 16.1697 16.8354L13.4632 13.1559H14.6745C14.8367 13.1556 14.9951 13.101 15.1299 12.9988C15.2646 12.8967 15.3697 12.7516 15.4318 12.5818C15.4939 12.4121 15.5102 12.2253 15.4787 12.045C15.4473 11.8648 15.3694 11.6991 15.255 11.569L12.5923 8.55127H13.4957C13.718 8.55127 13.9313 8.45117 14.0885 8.27298C14.2457 8.09479 14.334 7.85312 14.334 7.60112C14.335 7.36516 14.2572 7.13751 14.1163 6.96379L8.72549 0.242546C8.66377 0.166114 8.58868 0.105078 8.50501 0.0633214C8.42134 0.0215644 8.33092 0 8.2395 0C8.14808 0 8.05766 0.0215644 7.97399 0.0633214C7.89032 0.105078 7.81523 0.166114 7.75351 0.242546Z" fill="#008080"/>
<path d="M15.5356 11.3879C15.1408 9.72577 14.0772 5.9521 13.599 5.02823C13.3216 4.44597 12.9449 3.92925 12.4914 3.50877C12.2737 3.30246 12.0186 3.15371 11.7455 3.07388C11.4724 2.99405 11.1886 2.98526 10.9158 3.04817C10.6595 3.111 10.4335 3.27429 10.2774 3.50947L12.2094 11.1098L12.3784 11.772L12.4287 11.9629L12.4294 11.9687L12.6808 12.9381C12.6815 12.9438 12.685 12.9521 12.6857 12.9578C12.6978 12.9942 12.8363 13.4771 13.0102 14.0281C13.0772 14.242 13.1511 14.4671 13.2203 14.6778C13.3056 14.9335 13.3934 15.1711 13.4668 15.3497C13.5935 15.6473 13.7233 15.9529 13.854 16.2439C13.9896 16.5546 14.1185 16.8491 14.2243 17.1077C13.7967 17.2407 13.4211 17.524 13.1511 17.9173C12.9604 18.1979 12.8273 18.5239 12.7613 18.8726C12.6952 19.2213 12.6977 19.5843 12.7686 19.9363C12.9142 20.6604 13.2793 21.3109 13.8 21.7739C14.3208 22.237 14.9639 22.483 15.6168 22.4689C15.9337 22.462 16.2435 22.3774 16.5248 22.2209C16.806 22.0645 17.0521 21.8399 17.2459 21.5627C17.5625 21.1005 17.714 20.518 17.6718 19.926C17.635 19.3456 17.4448 18.7859 17.126 18.3197C16.6925 17.5955 16.3284 16.8226 16.0403 16.0145C15.8775 15.4783 15.8246 14.9106 15.8855 14.3551L15.9011 13.675C15.8711 12.9005 15.7481 12.1311 15.5356 11.3879ZM16.0092 20.4528C15.8417 20.6576 15.6076 20.7772 15.3575 20.7858C15.1075 20.7943 14.8616 20.6911 14.6732 20.4986C14.4634 20.3371 14.3161 20.0906 14.263 19.8125C14.2099 19.5344 14.2555 19.2471 14.3898 19.0128C14.5572 18.8081 14.7914 18.6884 15.0414 18.6799C15.2915 18.6713 15.5373 18.7745 15.7257 18.9671C15.9355 19.1285 16.0829 19.375 16.136 19.6531C16.189 19.9312 16.1435 20.2185 16.0092 20.4528ZM14.7149 13.3273C14.6454 13.4283 14.5505 13.5029 14.4419 13.5417C14.3334 13.5805 14.2161 13.5817 14.105 13.5452C13.9939 13.5087 13.894 13.4361 13.8178 13.3366C13.7416 13.2371 13.6926 13.1151 13.6769 12.9862C13.6613 12.8572 13.6798 12.7271 13.73 12.6121C13.7802 12.4972 13.86 12.4027 13.9591 12.3405C14.0582 12.2783 14.1724 12.2513 14.287 12.2629C14.4016 12.2744 14.5117 12.324 14.6032 12.4053C14.7255 12.5147 14.8059 12.6731 14.8269 12.8459C14.8478 13.0186 14.8075 13.1917 14.7149 13.3273Z" fill="#008080" stroke="#F5F5F5" stroke-width="0.75015"/>
<path d="M12.4948 14.7425C12.5395 14.7448 12.5841 14.7413 12.6277 14.7321C12.5829 14.6047 12.5422 14.4713 12.4997 14.3407L11.6181 11.169L5.25299 10.9021C5.09206 11.0887 4.9896 11.3302 4.96052 11.5914C4.97801 11.929 5.0622 12.2601 5.20689 12.5604C5.35159 12.8606 5.55311 13.1224 5.79664 13.3265C6.26509 13.7236 6.79602 14.0139 7.35864 14.1807C8.15373 14.4458 10.3189 14.6255 12.4948 14.7425Z" fill="#008080" stroke="#F5F5F5" stroke-width="0.75015"/>
<path d="M18.2467 10.4022C17.976 10.7957 17.8247 11.2794 17.8145 11.7842C17.5675 11.7294 17.2852 11.6585 16.987 11.5837C16.7122 11.5144 16.4299 11.4435 16.1562 11.3803L16.3189 12.0867L16.4761 14.1005C16.753 14.0445 17.0365 14.0315 17.3187 14.0618C18.0787 14.1858 18.8268 14.4032 19.5497 14.7098C20.025 14.9493 20.5489 15.0241 21.0535 14.9244C21.569 14.8266 22.0296 14.5185 22.3488 14.058C22.7129 13.4618 22.8492 12.7204 22.7279 11.9952C22.6067 11.2701 22.2378 10.6202 21.7017 10.1872C21.204 9.69947 20.5614 9.44833 19.914 9.48855C19.2667 9.52878 18.6676 9.85747 18.2467 10.4022ZM21.1096 12.9429C20.9419 13.148 20.7075 13.2678 20.4571 13.2763C20.2067 13.2849 19.9605 13.1816 19.7718 12.9887C19.5618 12.827 19.4142 12.5802 19.361 12.3017C19.3079 12.0232 19.3535 11.7355 19.488 11.5009C19.6556 11.2956 19.8901 11.1757 20.1406 11.167C20.3911 11.1584 20.6374 11.2617 20.8261 11.4546C21.0365 11.616 21.1843 11.863 21.2373 12.1417C21.2904 12.4203 21.2443 12.7082 21.1092 12.9425L21.1096 12.9429Z" fill="#008080" stroke="#F5F5F5" stroke-width="0.75015"/>
</g>
<defs>
<clipPath id="clip0_1296_2483">
<rect width="24" height="24" fill="white" transform="translate(0.113617)"/>
</clipPath>
</defs>
</svg>
