<svg width="25" height="24" viewBox="0 0 25 24" fill="none" xmlns="http://www.w3.org/2000/svg">
<g clip-path="url(#clip0_1296_2471)">
<path d="M12.7042 4.12914C12.2469 4.12904 11.794 4.21384 11.3715 4.37869C10.9489 4.54354 10.565 4.78522 10.2416 5.08991C9.91823 5.39461 9.66173 5.75635 9.48676 6.15447C9.3118 6.55259 9.2218 6.97929 9.2219 7.41019V9.37882H19.6688C20.4074 9.37941 21.1156 9.65615 21.6379 10.1483C22.1602 10.6404 22.454 11.3077 22.4546 12.0037V19.8774C22.4533 20.573 22.1593 21.2397 21.6371 21.7313C21.1149 22.223 20.407 22.4994 19.6688 22.5H5.74042C5.00218 22.4994 4.29432 22.223 3.77209 21.7313C3.24985 21.2397 2.95586 20.573 2.95459 19.8774L2.95459 12.0029C2.95522 11.3069 3.24893 10.6396 3.77124 10.1475C4.29355 9.6554 5.00177 9.37866 5.74042 9.37806H6.43688V7.41019C6.43566 6.06853 6.91938 4.76648 7.80838 3.71842C8.69738 2.67037 9.93867 1.93879 11.3279 1.64416C12.717 1.34952 14.1713 1.50939 15.4512 2.09745C16.7311 2.6855 17.7602 3.66667 18.3693 4.87941C18.5242 5.19334 18.5412 5.55226 18.4164 5.87791C18.2916 6.20356 18.0353 6.46952 17.7032 6.61781C17.3712 6.76609 16.9904 6.78467 16.6439 6.66949C16.2974 6.55431 16.0132 6.31471 15.8534 6.00295C15.5709 5.44157 15.1248 4.96739 14.5673 4.63564C14.0097 4.3039 13.3636 4.12824 12.7042 4.12914ZM14.0971 17.2526C14.4665 17.2526 14.8208 17.1143 15.082 16.8682C15.3433 16.6221 15.49 16.2882 15.49 15.9402C15.49 15.5921 15.3433 15.2583 15.082 15.0121C14.8208 14.766 14.4665 14.6277 14.0971 14.6277H11.3113C10.9419 14.6277 10.5876 14.766 10.3263 15.0121C10.0651 15.2583 9.91836 15.5921 9.91836 15.9402C9.91836 16.2882 10.0651 16.6221 10.3263 16.8682C10.5876 17.1143 10.9419 17.2526 11.3113 17.2526H14.0971Z" fill="#008080"/>
</g>
<defs>
<clipPath id="clip0_1296_2471">
<rect width="20.9999" height="20.9999" fill="white" transform="translate(2.20459 1.5)"/>
</clipPath>
</defs>
</svg>
