<svg width="25" height="24" viewBox="0 0 25 24" fill="none" xmlns="http://www.w3.org/2000/svg">
<path d="M16.9944 0.75H8.6867C7.99816 0.75 7.33781 1.01938 6.85094 1.49887C6.36407 1.97837 6.09055 2.62871 6.09055 3.30682V20.6932C6.09055 21.3713 6.36407 22.0216 6.85094 22.5011C7.33781 22.9806 7.99816 23.25 8.6867 23.25H16.9944C17.6829 23.25 18.3433 22.9806 18.8302 22.5011C19.317 22.0216 19.5905 21.3713 19.5905 20.6932V3.30682C19.5905 2.62871 19.317 1.97837 18.8302 1.49887C18.3433 1.01938 17.6829 0.75 16.9944 0.75ZM12.8405 22.2273C12.5325 22.2273 12.2313 22.1373 11.9751 21.9687C11.719 21.8002 11.5193 21.5606 11.4014 21.2803C11.2835 20.9999 11.2527 20.6915 11.3128 20.3939C11.3729 20.0963 11.5212 19.823 11.7391 19.6084C11.9569 19.3939 12.2345 19.2478 12.5367 19.1886C12.8388 19.1294 13.152 19.1598 13.4366 19.2759C13.7213 19.392 13.9646 19.5886 14.1357 19.8409C14.3069 20.0932 14.3982 20.3898 14.3982 20.6932C14.3985 20.8947 14.3584 21.0943 14.2802 21.2806C14.202 21.4668 14.0873 21.636 13.9426 21.7785C13.7979 21.9211 13.6261 22.034 13.437 22.111C13.2479 22.188 13.0452 22.2275 12.8405 22.2273ZM17.5136 18.1364H8.16747V3.81818H17.5136V18.1364Z" fill="#008080"/>
<path d="M15.184 10.1624V8.46434H14.0124V9.24746L12.8402 8.25L9.09055 11.4657H10.0278V14.25H12.1373V12.1094H13.5438V14.25H15.6533V11.4657H16.5905L15.184 10.1624Z" fill="#008080"/>
</svg>
